<svg xmlns="http://www.w3.org/2000/svg" width="512" height="512" viewBox="0 0 512 512"><path fill="none" d="M0 512h512V0H0zM157 86c-10.17-1.02-23.55.7-34.01 2.99-10.45 2.3-19.76 5.91-29.22 10.78s-14.86 9.86-21.54 18.46-6.31 21.13-.48 30.02c5.84 8.88 25.87 2.51 25.9 12.44.02 9.94-9.92 17.78-18.87 21.09-8.95 3.3-24.14 1.4-31.53-6.03-7.39-7.42-12.71-16.17-13.24-26.76-.54-10.59 3.23-21.9 8.76-30.22s10.75-15.2 18.98-21.02c8.24-5.82 16.01-10.54 25.33-14.67 9.31-4.14 19.65-8.1 29.94-10.06 10.29-1.95 22.29-6.47 33.2-5.8 10.91.68 23.12-1.54 29.53-10.47 6.42-8.92 26.18-8.25 26.25 2.25.06 10.51-9.11 18.45-18.68 21.32s-14.02 11.87-17.25 21.75c-3.22 9.89-7.75 19.54-9.85 30.15-2.1 10.62-4.98 22.17-7 33s-3.76 23.29-6 34-3.44 22.47-6.21 32.79c-2.78 10.32-5.09 21.37-8.99 31.01-3.89 9.65-7.94 17.81-13.94 26.06s-13.3 13.49-22.16 17.84c-8.85 4.36-22.49 7.32-32.92 6.08s-20.01-5.41-28.25-11.75-13.55-12.67-17.52-22.48-5.32-23.92-3.25-34.79c2.06-10.88 5.81-16.85 13.27-25.73 7.46-8.89 16.84-9.74 27.75-12.25s25.44 12.38 12.98 14.98c-12.47 2.59-20.63 2.11-28.23 11.77-7.59 9.66-6.38 21.39-1.44 30.94 4.93 9.56 18.67 12.26 28.36 10.98s18.18-8.22 23.08-16.92c4.9-8.69 8.66-18.78 11.18-28.82 2.51-10.05 4.74-21.64 7-32 2.25-10.37 4.42-22.76 7.05-32.95 2.62-10.2 6.02-20.75 9.79-30.21s7.34-18.82 13.15-26.85C143.73 98.88 148.48 90.93 157 86m26 84c.16 11.19 3.35 24.01 6.93 34.07a167 167 0 0 0 13.37 28.63c5.25 8.89 10.76 16.15 17 24 6.24 7.84 15.35 14.2 23.4 18.61 8.04 4.4 28.97 4.32 22.38 15.77-6.6 11.44-13.82 12.87-24.75 16.25-10.94 3.38-26.06.24-35.41-5.25-9.34-5.5-14.87-12.21-20.69-21.31s-9.15-17.14-13.01-27.99c-3.85-10.86-4.51-22.64-7.22-34.78-2.7-12.14-.18-24.62-3-38s5.9-22.19 17.68-24.32 17.94-9.65 27.07-14.93c9.13-5.27 15.19-11.26 21.5-19.5 6.32-8.24 12.31-15.96 16.52-25.48 4.21-9.51 10.85-18.05 13.54-28.46 2.68-10.42 12.25-21.67 17.01-8.63s2.26 24.16-1.3 35.34c-3.55 11.18-9.69 17.49-15.77 26.23-6.08 8.73-12.05 14.37-20 21s-15.97 11.98-24.95 17.05c-8.97 5.07-19.2 9.56-29.31 11.69M300 365c6.97 1.64 14.94 7.27 22 9 2.44-.35 3.89.6 6 1 3.4.64 7.13.64 10 2h1c4.15 0 8.57.53 12 1h4c3.49-.47 7.86-1 12-1h1c2.93-2.16 8.26-.85 12.01-1.99s8.83-2.46 12.99-2.01c-.5-1.18.17-2.96-1-4 4.83-.3 3.91-6.6 8-7 .1-.48 0-1 0-1 .96-4.44 7.53-6.03 12.01-5.01s14.31-.72 17.99 2.01h1c3.35-.32 5.93.73 9 1 4.69.41 21.8 1.55 14.92 6.92-6.89 5.36-8.58 7.43-15.92 10.08-.44.16-1 0-1 0-2.79 4.29-12.14 10.24-17 12-.44.16-1 0-1 0-2.52 4.03-6.61 2.79-10 2-5.98-1.39-5.72-4.05-10-7-5.45.73-9.84-1.17-16 0-6.74 2.22-13.65 3-21 3-6 .58-15.1 2.51-21 0-.5 0-1.5-.03-2 0-6.25.44-14.75-1.7-20-4h-1c-4.13-.16-6.69-2.58-10-4-2.12-.54-3.53-.2-5-2-.5-.01-1 0-1 0-3.72-.87-6.92-3.21-10-5-4.59-1.81-8.86-4.91-13-7-20.28-6.67-35.41-28.29-20.23-48.23S301.51 302.03 322 306c3.13-9.15 7.56-17.29 10.32-26.68 2.76-9.38 6.96-19.05 9.46-28.54s6.4-19.75 9-29c2.59-9.26 6.8-18.39 9.99-27.01s8.42-17.72 12.98-25.02c4.57-7.29 11.81-15.42 18-20s21.4-12.23 26-4.5-11.35 13.44-14 21.5c-2.65 8.05-9.19 17.62-11.07 26.93s-6.17 19.35-7.66 29.34c-1.48 10-5.02 21.06-6.8 31.2-1.78 10.15-4.45 20.96-7.15 30.85-2.69 9.89-6.02 19.16-9.07 28.93 14.9 3.18 33.52-.03 46.23-6.77 12.7-6.74 21.1-13.66 29.02-25.98 7.92-12.31 11.67-25.57 14.68-40.32 3-14.75 2.41-36.56-.71-51.15-3.12-14.6-7.5-27.02-15.99-39.01s-16.77-18.7-29.92-25.08c-13.16-6.37-34.16-6.34-48.32-3.7-14.15 2.65-27.96 7.65-38.74 16.26-10.79 8.61-19.78 19.26-23.03 31.97s-3.03 35.61 15.46 37.1 7 21.37-7.71 25.65c-14.7 4.29-29.6.63-38.74-12.2s-8.41-30.2-3.45-43.99c4.95-13.79 11.21-24.1 21.47-34.53 10.26-10.44 19.05-16.52 31.83-23.17 12.78-6.66 26.19-11.6 40.99-14.01 14.81-2.4 37.23-1.56 51.15 2.71 13.93 4.27 26.23 8.66 37.48 17.52 11.24 8.87 18.53 16.79 26.55 28.45 8.03 11.66 13.07 23.47 17.53 37.47s6.07 35.32 5.22 50.78-4.25 31.57-9.93 45.07c-5.67 13.51-11.31 23.1-21.32 33.68-10.01 10.59-20.55 16.55-33.83 22.17-13.27 5.63-34.1 6.53-48.92 6.08s-29.14-13.17-39.75-.75c-10.61 12.41-24.5 14.63-39.25 16.75"/><path fill="none" stroke="#08184d" stroke-opacity=".96" stroke-width=".3" d="M157 86c-8.52 4.93-13.27 12.88-19.08 20.92-5.81 8.03-9.38 17.39-13.15 26.85s-7.17 20.01-9.79 30.21c-2.63 10.19-4.8 22.58-7.05 32.95-2.26 10.36-4.49 21.95-7 32-2.52 10.04-6.28 20.13-11.18 28.82-4.9 8.7-13.39 15.64-23.08 16.92s-23.43-1.42-28.36-10.98c-4.94-9.55-6.15-21.28 1.44-30.94 7.6-9.66 15.76-9.18 28.23-11.77 12.46-2.6-2.07-17.49-12.98-14.98s-20.29 3.36-27.75 12.25c-7.46 8.88-11.21 14.85-13.27 25.73-2.07 10.87-.72 24.98 3.25 34.79s9.28 16.14 17.52 22.48S52.57 311.76 63 313s24.07-1.72 32.92-6.08c8.86-4.35 16.16-9.59 22.16-17.84s10.05-16.41 13.94-26.06c3.9-9.64 6.21-20.69 8.99-31.01 2.77-10.32 3.97-22.08 6.21-32.79s3.98-23.17 6-34 4.9-22.38 7-33c2.1-10.61 6.63-20.26 9.85-30.15 3.23-9.88 7.68-18.88 17.25-21.75S206.06 69.51 206 59c-.07-10.5-19.83-11.17-26.25-2.25-6.41 8.93-18.62 11.15-29.53 10.47-10.91-.67-22.91 3.85-33.2 5.8-10.29 1.96-20.63 5.92-29.94 10.06-9.32 4.13-17.09 8.85-25.33 14.67-8.23 5.82-13.45 12.7-18.98 21.02s-9.3 19.63-8.76 30.22c.53 10.59 5.85 19.34 13.24 26.76 7.39 7.43 22.58 9.33 31.53 6.03 8.95-3.31 18.89-11.15 18.87-21.09-.03-9.93-20.06-3.56-25.9-12.44-5.83-8.89-6.2-21.42.48-30.02s12.08-13.59 21.54-18.46 18.77-8.48 29.22-10.78C133.45 86.7 146.83 84.98 157 86Z"/><path fill="none" stroke="#08184d" stroke-opacity=".96" stroke-width=".3" d="M183.99 169.99c10.11-2.13 20.34-6.62 29.31-11.69 8.98-5.07 17-10.42 24.95-17.05s13.92-12.27 20-21c6.08-8.74 12.22-15.05 15.77-26.23 3.56-11.18 6.06-22.3 1.3-35.34s-14.33-1.79-17.01 8.63c-2.69 10.41-9.33 18.95-13.54 28.46-4.21 9.52-10.2 17.24-16.52 25.48-6.31 8.24-12.37 14.23-21.5 19.5-9.13 5.28-15.29 12.8-27.07 14.93S159.18 166.62 162 180s.3 25.86 3 38c2.71 12.14 3.37 23.92 7.22 34.78 3.86 10.85 7.19 18.89 13.01 27.99s11.35 15.81 20.69 21.31c9.35 5.49 24.47 8.63 35.41 5.25 10.93-3.38 18.15-4.81 24.75-16.25 6.59-11.45-14.34-11.37-22.38-15.77-8.05-4.41-17.16-10.77-23.4-18.61-6.24-7.85-11.75-15.11-17-24a167 167 0 0 1-13.37-28.63c-3.58-10.06-6.77-22.88-6.93-34.07Z"/><path fill="none" stroke="#091a4d" stroke-opacity=".97" stroke-width=".3" d="M280 364c5.18 1.7 9.4 4.33 14 7 3.11 1.22 6.56 3.04 9 5 0 0 .5-.01 1 0 3.9.09 5.14 1.54 8 3 2.4.91 4.91 1.9 7 3h1c7.47 0 14.33 2.35 21 3 8.25-1.19 20.06-.61 28-1s17.39-6.14 24-3c.5-.01 1.51-.07 2 0 4.67.69 11.76 8.91 19 8 7.25-.91 13.67-7.8 20-11 1.3-.65 2.67-1.15 4-2 0 0 .56.16 1 0 5.09-5.31 12.91-8.47 17-14-3.48-1.35-7.27-1.52-11-2-4.36.03-8.97-.73-14-1-7-.38-21.72-3-27-1-1.48.71-2.11 1.8-3 3 .1 1.41-2.01 7.48-2.97 8.03-.97.54-5.12 5.9-5.03 5.97-6.52 2.93-16.77 2.3-24 3-3.51.34-12.19 2.84-16 2s-15.76 1.16-16-3c-.5 0-1.51.06-2 0-3.81 1.74-10.7-.66-15-2-3.38-1.05-9.15-3.86-12.23-4.77s-10.36-5.84-7.77-5.23c14.75-2.12 28.64-4.34 39.25-16.75 10.61-12.42 24.93.3 39.75.75s35.65-.45 48.92-6.08c13.28-5.62 23.82-11.58 33.83-22.17 10.01-10.58 15.65-20.17 21.32-33.68 5.68-13.5 9.08-29.61 9.93-45.07s-.76-36.78-5.22-50.78-9.5-25.81-17.53-37.47c-8.02-11.66-15.31-19.58-26.55-28.45-11.25-8.86-23.55-13.25-37.48-17.52-13.92-4.27-36.34-5.11-51.15-2.71-14.8 2.41-28.21 7.35-40.99 14.01-12.78 6.65-21.57 12.73-31.83 23.17-10.26 10.43-16.52 20.74-21.47 34.53-4.96 13.79-5.69 31.16 3.45 43.99s24.04 16.49 38.74 12.2c14.71-4.28 26.2-24.16 7.71-25.65s-18.71-24.39-15.46-37.1 12.24-23.36 23.03-31.97c10.78-8.61 24.59-13.61 38.74-16.26 14.16-2.64 35.16-2.67 48.32 3.7 13.15 6.38 21.43 13.09 29.92 25.08s12.87 24.41 15.99 39.01c3.12 14.59 3.71 36.4.71 51.15-3.01 14.75-6.76 28.01-14.68 40.32-7.92 12.32-16.32 19.24-29.02 25.98-12.71 6.74-31.33 9.95-46.23 6.77 3.05-9.77 6.38-19.04 9.07-28.93 2.7-9.89 5.37-20.7 7.15-30.85 1.78-10.14 5.32-21.2 6.8-31.2 1.49-9.99 5.78-20.03 7.66-29.34s8.42-18.88 11.07-26.93c2.65-8.06 18.6-13.77 14-21.5s-19.81-.08-26 4.5-13.43 12.71-18 20c-4.56 7.3-9.79 16.4-12.98 25.02s-7.4 17.75-9.99 27.01c-2.6 9.25-6.5 19.51-9 29s-6.7 19.16-9.46 28.54c-2.76 9.39-7.19 17.53-10.32 26.68-20.49-3.97-47.05-10.17-62.23 9.77S259.72 357.33 280 364m29-41c-6.9 5.55-11.87 8.11-21.07 8.93s-12.64-11.52-2.85-12.85c9.78-1.34 15.59.51 23.92 3.92Z"/><path fill="none" d="M309 323c-8.33-3.41-14.14-5.26-23.92-3.92-9.79 1.33-6.35 13.67 2.85 12.85S302.1 328.55 309 323"/><path fill="none" stroke="#b9c2d2" stroke-opacity=".13" stroke-width=".3" d="M400 361c.25-.25 1 0 1 0 .89-1.2 1.52-2.29 3-3 7.12-3.42 18.22 0 26 0-3.68-2.73-13.51-.99-17.99-2.01s-11.05.57-12.01 5.01Z"/><path fill="none" stroke="#314165" stroke-opacity=".72" stroke-width=".3" d="M404 358c5.28-2 20 .62 27 1-.01 0 0-1 0-1h-1c-7.78 0-18.88-3.42-26 0Z"/><path fill="none" stroke="#677692" stroke-opacity=".45" stroke-width=".3" d="M431 359c5.03.27 9.64 1.03 14 1-1.95-.2-3.6-.65-5-1-3.07-.27-5.65-1.32-9-1 0 0-.01 1 0 1Z"/><path fill="none" stroke="#afb6c7" stroke-opacity=".13" stroke-width=".3" d="M445 360c3.73.48 7.52.65 11 2-4.09 5.53-11.91 8.69-17 14 7.34-2.65 9.03-4.72 15.92-10.08 6.88-5.37-10.23-6.51-14.92-6.92 1.4.35 3.05.8 5 1Z"/><path fill="none" stroke="#334161" stroke-opacity=".64" stroke-width=".3" d="M400 362c-1.11 5.06-5.01 6.43-6 11-.02.11-1.03 2.01-1 2-.09-.07 4.06-5.43 5.03-5.97.96-.55 3.07-6.62 2.97-8.03 0 0-.75-.25-1 0 0 0 .1.52 0 1Z"/><path fill="none" stroke="#b7c4dc" stroke-opacity=".07" stroke-width=".3" d="M393 373c.49.05 1 0 1 0 .99-4.57 4.89-5.94 6-11-4.09.4-3.17 6.7-8 7 1.17 1.04.5 2.82 1 4Z"/><path fill="none" stroke="#969bb9" stroke-opacity=".13" stroke-width=".3" d="M293 371c.43.17 1 0 1 0-4.6-2.67-8.82-5.3-14-7 4.14 2.09 8.41 5.19 13 7Z"/><path fill="none" stroke="#8994a8" stroke-opacity=".17" stroke-width=".3" d="M320 375c.01 0 1.48-.92 2-1-7.06-1.73-15.03-7.36-22-9-2.59-.61 4.69 4.32 7.77 5.23s8.85 3.72 12.23 4.77Z"/><path fill="none" stroke="#d2dee5" stroke-opacity=".03" stroke-width=".3" d="M303 376c-2.44-1.96-5.89-3.78-9-5 0 0-.57.17-1 0 3.08 1.79 6.28 4.13 10 5Z"/><path fill="none" stroke="#76809c" stroke-opacity=".23" stroke-width=".3" d="M368 377c.35.03.77.95 1 1 7.23-.7 17.48-.07 24-3-.03.01.98-1.89 1-2 0 0-.51.05-1 0-4.16-.45-9.24.87-12.99 2.01s-9.08-.17-12.01 1.99Z"/><path fill="none" stroke="#626d8a" stroke-opacity=".29" stroke-width=".3" d="M320 375c4.3 1.34 11.19 3.74 15 2-2.58-.31-4.91-1.36-7-2-2.11-.4-3.56-1.35-6-1-.52.08-1.99 1-2 1Z"/><path fill="none" stroke="#cbd1de" stroke-opacity=".03" stroke-width=".3" d="M335 377c.49.06 1.5 0 2 0h1c-2.87-1.36-6.6-1.36-10-2 2.09.64 4.42 1.69 7 2Z"/><path fill="none" stroke="#6e7e97" stroke-opacity=".35" stroke-width=".3" d="M309 378c1.13.29 1.89.58 3 1-2.86-1.46-4.1-2.91-8-3 1.47 1.8 2.88 1.46 5 2Z"/><path fill="none" stroke="#c5d8e2" stroke-opacity=".05" stroke-width=".3" d="M434 378c-4.18 2.63-9.63 6.48-13 10 4.86-1.76 14.21-7.71 17-12-1.33.85-2.7 1.35-4 2Z"/><path fill="none" stroke="#3e4b6a" stroke-opacity=".47" stroke-width=".3" d="M369 378c-.23-.05-.65-.97-1-1h-1c-2.7 2-8.45 1-12 1h-4c-3.61 0-9.29 1-12-1h-2c.24 4.16 12.19 2.16 16 3s12.49-1.66 16-2Z"/><path fill="none" stroke="#c7d2df" stroke-opacity=".03" stroke-width=".3" d="M351 378c-3.43-.47-7.85-1-12-1 2.71 2 8.39 1 12 1Z"/><path fill="none" stroke="#c8d6e7" stroke-opacity=".03" stroke-width=".3" d="M355 378c3.55 0 9.3 1 12-1-4.14 0-8.51.53-12 1Z"/><path fill="none" stroke="#c9d2de" stroke-opacity=".07" stroke-width=".3" d="M319 382c-2.09-1.1-4.6-2.09-7-3-1.11-.42-1.87-.71-3-1 3.31 1.42 5.87 3.84 10 4Z"/><path fill="none" stroke="#4d5972" stroke-opacity=".4" stroke-width=".3" d="M395 381c2.05 2.52 2.62.36 5 2 4.28 2.95 4.02 5.61 10 7 3.71.34 6.93-.07 10-2 0 0 .56.16 1 0 3.37-3.52 8.82-7.37 13-10-6.33 3.2-12.75 10.09-20 11-7.24.91-14.33-7.31-19-8Z"/><path fill="none" stroke="#4e5b7a" stroke-opacity=".45" stroke-width=".3" d="M341 385c-.35.05-.76.93-1 1 .5-.03 1.5 0 2 0h21c7.35 0 14.26-.78 21-3 2.7-.89 5.71-1.91 9-2-6.61-3.14-16.06 2.61-24 3s-19.75-.19-28 1Z"/><path fill="none" stroke="#bbc5d1" stroke-opacity=".09" stroke-width=".3" d="M384 383c6.16-1.17 10.55.73 16 0-2.38-1.64-2.95.52-5-2-.49-.07-1.5-.01-2 0-3.29.09-6.3 1.11-9 2Z"/><path fill="none" stroke="#6f7993" stroke-opacity=".34" stroke-width=".3" d="M340 386c.24-.07.65-.95 1-1-6.67-.65-13.53-3-21-3 5.25 2.3 13.75 4.44 20 4Z"/><path fill="none" stroke="#dadfec" stroke-opacity=".03" stroke-width=".3" d="M363 386h-21c5.9 2.51 15 .58 21 0Z"/><path fill="none" stroke="#dde6ee" stroke-opacity=".03" stroke-width=".3" d="M410 390c3.39.79 7.48 2.03 10-2-3.07 1.93-6.29 2.34-10 2Z"/><path fill="none" d="M0 512h512V0H0zM157 86c-10.17-1.02-23.55.7-34.01 2.99-10.45 2.3-19.76 5.91-29.22 10.78s-14.86 9.86-21.54 18.46-6.31 21.13-.48 30.02c5.84 8.88 25.87 2.51 25.9 12.44.02 9.94-9.92 17.78-18.87 21.09-8.95 3.3-24.14 1.4-31.53-6.03-7.39-7.42-12.71-16.17-13.24-26.76-.54-10.59 3.23-21.9 8.76-30.22s10.75-15.2 18.98-21.02c8.24-5.82 16.01-10.54 25.33-14.67 9.31-4.14 19.65-8.1 29.94-10.06 10.29-1.95 22.29-6.47 33.2-5.8 10.91.68 23.12-1.54 29.53-10.47 6.42-8.92 26.18-8.25 26.25 2.25.06 10.51-9.11 18.45-18.68 21.32s-14.02 11.87-17.25 21.75c-3.22 9.89-7.75 19.54-9.85 30.15-2.1 10.62-4.98 22.17-7 33s-3.76 23.29-6 34-3.44 22.47-6.21 32.79c-2.78 10.32-5.09 21.37-8.99 31.01-3.89 9.65-7.94 17.81-13.94 26.06s-13.3 13.49-22.16 17.84c-8.85 4.36-22.49 7.32-32.92 6.08s-20.01-5.41-28.25-11.75-13.55-12.67-17.52-22.48-5.32-23.92-3.25-34.79c2.06-10.88 5.81-16.85 13.27-25.73 7.46-8.89 16.84-9.74 27.75-12.25s25.44 12.38 12.98 14.98c-12.47 2.59-20.63 2.11-28.23 11.77-7.59 9.66-6.38 21.39-1.44 30.94 4.93 9.56 18.67 12.26 28.36 10.98s18.18-8.22 23.08-16.92c4.9-8.69 8.66-18.78 11.18-28.82 2.51-10.05 4.74-21.64 7-32 2.25-10.37 4.42-22.76 7.05-32.95 2.62-10.2 6.02-20.75 9.79-30.21s7.34-18.82 13.15-26.85C143.73 98.88 148.48 90.93 157 86m26 84c.16 11.19 3.35 24.01 6.93 34.07a167 167 0 0 0 13.37 28.63c5.25 8.89 10.76 16.15 17 24 6.24 7.84 15.35 14.2 23.4 18.61 8.04 4.4 28.97 4.32 22.38 15.77-6.6 11.44-13.82 12.87-24.75 16.25-10.94 3.38-26.06.24-35.41-5.25-9.34-5.5-14.87-12.21-20.69-21.31s-9.15-17.14-13.01-27.99c-3.85-10.86-4.51-22.64-7.22-34.78-2.7-12.14-.18-24.62-3-38s5.9-22.19 17.68-24.32 17.94-9.65 27.07-14.93c9.13-5.27 15.19-11.26 21.5-19.5 6.32-8.24 12.31-15.96 16.52-25.48 4.21-9.51 10.85-18.05 13.54-28.46 2.68-10.42 12.25-21.67 17.01-8.63s2.26 24.16-1.3 35.34c-3.55 11.18-9.69 17.49-15.77 26.23-6.08 8.73-12.05 14.37-20 21s-15.97 11.98-24.95 17.05c-8.97 5.07-19.2 9.56-29.31 11.69M300 365c6.97 1.64 14.94 7.27 22 9 2.44-.35 3.89.6 6 1 3.4.64 7.13.64 10 2h1c4.15 0 8.57.53 12 1h4c3.49-.47 7.86-1 12-1h1c2.93-2.16 8.26-.85 12.01-1.99s8.83-2.46 12.99-2.01c-.5-1.18.17-2.96-1-4 4.83-.3 3.91-6.6 8-7 .1-.48 0-1 0-1 .96-4.44 7.53-6.03 12.01-5.01s14.31-.72 17.99 2.01h1c3.35-.32 5.93.73 9 1 4.69.41 21.8 1.55 14.92 6.92-6.89 5.36-8.58 7.43-15.92 10.08-.44.16-1 0-1 0-2.79 4.29-12.14 10.24-17 12-.44.16-1 0-1 0-2.52 4.03-6.61 2.79-10 2-5.98-1.39-5.72-4.05-10-7-5.45.73-9.84-1.17-16 0-6.74 2.22-13.65 3-21 3-6 .58-15.1 2.51-21 0-.5 0-1.5-.03-2 0-6.25.44-14.75-1.7-20-4h-1c-4.13-.16-6.69-2.58-10-4-2.12-.54-3.53-.2-5-2-.5-.01-1 0-1 0-3.72-.87-6.92-3.21-10-5-4.59-1.81-8.86-4.91-13-7-20.28-6.67-35.41-28.29-20.23-48.23S301.51 302.03 322 306c3.13-9.15 7.56-17.29 10.32-26.68 2.76-9.38 6.96-19.05 9.46-28.54s6.4-19.75 9-29c2.59-9.26 6.8-18.39 9.99-27.01s8.42-17.72 12.98-25.02c4.57-7.29 11.81-15.42 18-20s21.4-12.23 26-4.5-11.35 13.44-14 21.5c-2.65 8.05-9.19 17.62-11.07 26.93s-6.17 19.35-7.66 29.34c-1.48 10-5.02 21.06-6.8 31.2-1.78 10.15-4.45 20.96-7.15 30.85-2.69 9.89-6.02 19.16-9.07 28.93 14.9 3.18 33.52-.03 46.23-6.77 12.7-6.74 21.1-13.66 29.02-25.98 7.92-12.31 11.67-25.57 14.68-40.32 3-14.75 2.41-36.56-.71-51.15-3.12-14.6-7.5-27.02-15.99-39.01s-16.77-18.7-29.92-25.08c-13.16-6.37-34.16-6.34-48.32-3.7-14.15 2.65-27.96 7.65-38.74 16.26-10.79 8.61-19.78 19.26-23.03 31.97s-3.03 35.61 15.46 37.1 7 21.37-7.71 25.65c-14.7 4.29-29.6.63-38.74-12.2s-8.41-30.2-3.45-43.99c4.95-13.79 11.21-24.1 21.47-34.53 10.26-10.44 19.05-16.52 31.83-23.17 12.78-6.66 26.19-11.6 40.99-14.01 14.81-2.4 37.23-1.56 51.15 2.71 13.93 4.27 26.23 8.66 37.48 17.52 11.24 8.87 18.53 16.79 26.55 28.45 8.03 11.66 13.07 23.47 17.53 37.47s6.07 35.32 5.22 50.78-4.25 31.57-9.93 45.07c-5.67 13.51-11.31 23.1-21.32 33.68-10.01 10.59-20.55 16.55-33.83 22.17-13.27 5.63-34.1 6.53-48.92 6.08s-29.14-13.17-39.75-.75c-10.61 12.41-24.5 14.63-39.25 16.75"/><path fill="#08184d" fill-opacity=".96" d="M157 86c-8.52 4.93-13.27 12.88-19.08 20.92-5.81 8.03-9.38 17.39-13.15 26.85s-7.17 20.01-9.79 30.21c-2.63 10.19-4.8 22.58-7.05 32.95-2.26 10.36-4.49 21.95-7 32-2.52 10.04-6.28 20.13-11.18 28.82-4.9 8.7-13.39 15.64-23.08 16.92s-23.43-1.42-28.36-10.98c-4.94-9.55-6.15-21.28 1.44-30.94 7.6-9.66 15.76-9.18 28.23-11.77 12.46-2.6-2.07-17.49-12.98-14.98s-20.29 3.36-27.75 12.25c-7.46 8.88-11.21 14.85-13.27 25.73-2.07 10.87-.72 24.98 3.25 34.79s9.28 16.14 17.52 22.48S52.57 311.76 63 313s24.07-1.72 32.92-6.08c8.86-4.35 16.16-9.59 22.16-17.84s10.05-16.41 13.94-26.06c3.9-9.64 6.21-20.69 8.99-31.01 2.77-10.32 3.97-22.08 6.21-32.79s3.98-23.17 6-34 4.9-22.38 7-33c2.1-10.61 6.63-20.26 9.85-30.15 3.23-9.88 7.68-18.88 17.25-21.75S206.06 69.51 206 59c-.07-10.5-19.83-11.17-26.25-2.25-6.41 8.93-18.62 11.15-29.53 10.47-10.91-.67-22.91 3.85-33.2 5.8-10.29 1.96-20.63 5.92-29.94 10.06-9.32 4.13-17.09 8.85-25.33 14.67-8.23 5.82-13.45 12.7-18.98 21.02s-9.3 19.63-8.76 30.22c.53 10.59 5.85 19.34 13.24 26.76 7.39 7.43 22.58 9.33 31.53 6.03 8.95-3.31 18.89-11.15 18.87-21.09-.03-9.93-20.06-3.56-25.9-12.44-5.83-8.89-6.2-21.42.48-30.02s12.08-13.59 21.54-18.46 18.77-8.48 29.22-10.78C133.45 86.7 146.83 84.98 157 86"/><path fill="#08184d" fill-opacity=".96" d="M183.99 169.99c10.11-2.13 20.34-6.62 29.31-11.69 8.98-5.07 17-10.42 24.95-17.05s13.92-12.27 20-21c6.08-8.74 12.22-15.05 15.77-26.23 3.56-11.18 6.06-22.3 1.3-35.34s-14.33-1.79-17.01 8.63c-2.69 10.41-9.33 18.95-13.54 28.46-4.21 9.52-10.2 17.24-16.52 25.48-6.31 8.24-12.37 14.23-21.5 19.5-9.13 5.28-15.29 12.8-27.07 14.93S159.18 166.62 162 180s.3 25.86 3 38c2.71 12.14 3.37 23.92 7.22 34.78 3.86 10.85 7.19 18.89 13.01 27.99s11.35 15.81 20.69 21.31c9.35 5.49 24.47 8.63 35.41 5.25 10.93-3.38 18.15-4.81 24.75-16.25 6.59-11.45-14.34-11.37-22.38-15.77-8.05-4.41-17.16-10.77-23.4-18.61-6.24-7.85-11.75-15.11-17-24a167 167 0 0 1-13.37-28.63c-3.58-10.06-6.77-22.88-6.93-34.07Z"/><path fill="#091a4d" fill-opacity=".97" d="M280 364c5.18 1.7 9.4 4.33 14 7 3.11 1.22 6.56 3.04 9 5 0 0 .5-.01 1 0 3.9.09 5.14 1.54 8 3 2.4.91 4.91 1.9 7 3h1c7.47 0 14.33 2.35 21 3 8.25-1.19 20.06-.61 28-1s17.39-6.14 24-3c.5-.01 1.51-.07 2 0 4.67.69 11.76 8.91 19 8 7.25-.91 13.67-7.8 20-11 1.3-.65 2.67-1.15 4-2 0 0 .56.16 1 0 5.09-5.31 12.91-8.47 17-14-3.48-1.35-7.27-1.52-11-2-4.36.03-8.97-.73-14-1-7-.38-21.72-3-27-1-1.48.71-2.11 1.8-3 3 .1 1.41-2.01 7.48-2.97 8.03-.97.54-5.12 5.9-5.03 5.97-6.52 2.93-16.77 2.3-24 3-3.51.34-12.19 2.84-16 2s-15.76 1.16-16-3c-.5 0-1.51.06-2 0-3.81 1.74-10.7-.66-15-2-3.38-1.05-9.15-3.86-12.23-4.77s-10.36-5.84-7.77-5.23c14.75-2.12 28.64-4.34 39.25-16.75 10.61-12.42 24.93.3 39.75.75s35.65-.45 48.92-6.08c13.28-5.62 23.82-11.58 33.83-22.17 10.01-10.58 15.65-20.17 21.32-33.68 5.68-13.5 9.08-29.61 9.93-45.07s-.76-36.78-5.22-50.78-9.5-25.81-17.53-37.47c-8.02-11.66-15.31-19.58-26.55-28.45-11.25-8.86-23.55-13.25-37.48-17.52-13.92-4.27-36.34-5.11-51.15-2.71-14.8 2.41-28.21 7.35-40.99 14.01-12.78 6.65-21.57 12.73-31.83 23.17-10.26 10.43-16.52 20.74-21.47 34.53-4.96 13.79-5.69 31.16 3.45 43.99s24.04 16.49 38.74 12.2c14.71-4.28 26.2-24.16 7.71-25.65s-18.71-24.39-15.46-37.1 12.24-23.36 23.03-31.97c10.78-8.61 24.59-13.61 38.74-16.26 14.16-2.64 35.16-2.67 48.32 3.7 13.15 6.38 21.43 13.09 29.92 25.08s12.87 24.41 15.99 39.01c3.12 14.59 3.71 36.4.71 51.15-3.01 14.75-6.76 28.01-14.68 40.32-7.92 12.32-16.32 19.24-29.02 25.98-12.71 6.74-31.33 9.95-46.23 6.77 3.05-9.77 6.38-19.04 9.07-28.93 2.7-9.89 5.37-20.7 7.15-30.85 1.78-10.14 5.32-21.2 6.8-31.2 1.49-9.99 5.78-20.03 7.66-29.34s8.42-18.88 11.07-26.93c2.65-8.06 18.6-13.77 14-21.5s-19.81-.08-26 4.5-13.43 12.71-18 20c-4.56 7.3-9.79 16.4-12.98 25.02s-7.4 17.75-9.99 27.01c-2.6 9.25-6.5 19.51-9 29s-6.7 19.16-9.46 28.54c-2.76 9.39-7.19 17.53-10.32 26.68-20.49-3.97-47.05-10.17-62.23 9.77S259.72 357.33 280 364m29-41c-6.9 5.55-11.87 8.11-21.07 8.93s-12.64-11.52-2.85-12.85c9.78-1.34 15.59.51 23.92 3.92"/><path fill="none" d="M309 323c-8.33-3.41-14.14-5.26-23.92-3.92-9.79 1.33-6.35 13.67 2.85 12.85S302.1 328.55 309 323"/><path fill="#b9c2d2" fill-opacity=".13" d="M400 361c.25-.25 1 0 1 0 .89-1.2 1.52-2.29 3-3 7.12-3.42 18.22 0 26 0-3.68-2.73-13.51-.99-17.99-2.01s-11.05.57-12.01 5.01"/><path fill="#314165" fill-opacity=".72" d="M404 358c5.28-2 20 .62 27 1-.01 0 0-1 0-1h-1c-7.78 0-18.88-3.42-26 0"/><path fill="#677692" fill-opacity=".45" d="M431 359c5.03.27 9.64 1.03 14 1-1.95-.2-3.6-.65-5-1-3.07-.27-5.65-1.32-9-1 0 0-.01 1 0 1"/><path fill="#afb6c7" fill-opacity=".13" d="M445 360c3.73.48 7.52.65 11 2-4.09 5.53-11.91 8.69-17 14 7.34-2.65 9.03-4.72 15.92-10.08 6.88-5.37-10.23-6.51-14.92-6.92 1.4.35 3.05.8 5 1"/><path fill="#334161" fill-opacity=".64" d="M400 362c-1.11 5.06-5.01 6.43-6 11-.02.11-1.03 2.01-1 2-.09-.07 4.06-5.43 5.03-5.97.96-.55 3.07-6.62 2.97-8.03 0 0-.75-.25-1 0 0 0 .1.52 0 1"/><path fill="#b7c4dc" fill-opacity=".07" d="M393 373c.49.05 1 0 1 0 .99-4.57 4.89-5.94 6-11-4.09.4-3.17 6.7-8 7 1.17 1.04.5 2.82 1 4"/><path fill="#969bb9" fill-opacity=".13" d="M293 371c.43.17 1 0 1 0-4.6-2.67-8.82-5.3-14-7 4.14 2.09 8.41 5.19 13 7"/><path fill="#8994a8" fill-opacity=".17" d="M320 375c.01 0 1.48-.92 2-1-7.06-1.73-15.03-7.36-22-9-2.59-.61 4.69 4.32 7.77 5.23s8.85 3.72 12.23 4.77"/><path fill="#d2dee5" fill-opacity=".03" d="M303 376c-2.44-1.96-5.89-3.78-9-5 0 0-.57.17-1 0 3.08 1.79 6.28 4.13 10 5"/><path fill="#76809c" fill-opacity=".23" d="M368 377c.35.03.77.95 1 1 7.23-.7 17.48-.07 24-3-.03.01.98-1.89 1-2 0 0-.51.05-1 0-4.16-.45-9.24.87-12.99 2.01s-9.08-.17-12.01 1.99"/><path fill="#626d8a" fill-opacity=".29" d="M320 375c4.3 1.34 11.19 3.74 15 2-2.58-.31-4.91-1.36-7-2-2.11-.4-3.56-1.35-6-1-.52.08-1.99 1-2 1"/><path fill="#cbd1de" fill-opacity=".03" d="M335 377c.49.06 1.5 0 2 0h1c-2.87-1.36-6.6-1.36-10-2 2.09.64 4.42 1.69 7 2"/><path fill="#6e7e97" fill-opacity=".35" d="M309 378c1.13.29 1.89.58 3 1-2.86-1.46-4.1-2.91-8-3 1.47 1.8 2.88 1.46 5 2"/><path fill="#c5d8e2" fill-opacity=".05" d="M434 378c-4.18 2.63-9.63 6.48-13 10 4.86-1.76 14.21-7.71 17-12-1.33.85-2.7 1.35-4 2"/><path fill="#3e4b6a" fill-opacity=".47" d="M369 378c-.23-.05-.65-.97-1-1h-1c-2.7 2-8.45 1-12 1h-4c-3.61 0-9.29 1-12-1h-2c.24 4.16 12.19 2.16 16 3s12.49-1.66 16-2"/><path fill="#c7d2df" fill-opacity=".03" d="M351 378c-3.43-.47-7.85-1-12-1 2.71 2 8.39 1 12 1"/><path fill="#c8d6e7" fill-opacity=".03" d="M355 378c3.55 0 9.3 1 12-1-4.14 0-8.51.53-12 1"/><path fill="#c9d2de" fill-opacity=".07" d="M319 382c-2.09-1.1-4.6-2.09-7-3-1.11-.42-1.87-.71-3-1 3.31 1.42 5.87 3.84 10 4"/><path fill="#4d5972" fill-opacity=".4" d="M395 381c2.05 2.52 2.62.36 5 2 4.28 2.95 4.02 5.61 10 7 3.71.34 6.93-.07 10-2 0 0 .56.16 1 0 3.37-3.52 8.82-7.37 13-10-6.33 3.2-12.75 10.09-20 11-7.24.91-14.33-7.31-19-8"/><path fill="#4e5b7a" fill-opacity=".45" d="M341 385c-.35.05-.76.93-1 1 .5-.03 1.5 0 2 0h21c7.35 0 14.26-.78 21-3 2.7-.89 5.71-1.91 9-2-6.61-3.14-16.06 2.61-24 3s-19.75-.19-28 1"/><path fill="#bbc5d1" fill-opacity=".09" d="M384 383c6.16-1.17 10.55.73 16 0-2.38-1.64-2.95.52-5-2-.49-.07-1.5-.01-2 0-3.29.09-6.3 1.11-9 2"/><path fill="#6f7993" fill-opacity=".34" d="M340 386c.24-.07.65-.95 1-1-6.67-.65-13.53-3-21-3 5.25 2.3 13.75 4.44 20 4"/><path fill="#dadfec" fill-opacity=".03" d="M363 386h-21c5.9 2.51 15 .58 21 0"/><path fill="#dde6ee" fill-opacity=".03" d="M410 390c3.39.79 7.48 2.03 10-2-3.07 1.93-6.29 2.34-10 2"/></svg>